<?xml version="1.0" encoding="iso-8859-1"?>
<!-- Generator: Adobe Illustrator 19.0.0, SVG Export Plug-In . SVG Version: 6.00 Build 0)  -->
<svg version="1.1" id="Layer_1" xmlns="http://www.w3.org/2000/svg" xmlns:xlink="http://www.w3.org/1999/xlink" x="0px" y="0px"
	 viewBox="0 0 512 512" style="enable-background:new 0 0 512 512;" xml:space="preserve">
<polygon style="fill:#F4661E;" points="501.551,10.449 501.551,125.388 491.102,125.388 10.449,125.388 10.449,62.694 
	10.449,10.449 "/>
<path style="fill:#F1F2F2;" d="M256,271.673c-57.673,0-104.49,46.817-104.49,104.49l0.418,4.388
	c-5.541,0.52-11.704,0.837-18.704,0.837c-61.439,0-61.439-20.898-122.775-20.898V125.388h480.653h10.449V360.49
	c-61.439,0-61.439,20.898-122.776,20.898c-7,0-13.164-0.317-18.704-0.837l0.418-4.388C360.49,318.49,313.673,271.673,256,271.673z"
	/>
<path style="fill:#31C0D8;" d="M501.551,360.49v141.061H10.449V360.49c61.337,0,61.337,20.898,122.776,20.898
	c7,0,13.164-0.317,18.704-0.837c43.47-3.653,49.633-20.061,103.969-20.061c54.439,0,60.602,16.408,104.173,20.061
	c5.541,0.52,11.704,0.837,18.704,0.837C440.112,381.388,440.112,360.49,501.551,360.49z"/>
<path style="fill:#FFD248;" d="M360.49,376.163l-0.418,4.388c-43.572-3.653-49.735-20.061-104.174-20.061
	c-54.337,0-60.5,16.408-103.969,20.061l-0.418-4.388c0-57.673,46.817-104.49,104.49-104.49S360.49,318.49,360.49,376.163z"/>
<g>
	<path style="fill:#231F20;" d="M501.551,0H10.449C4.678,0,0,4.678,0,10.449v491.102C0,507.321,4.678,512,10.449,512h491.102
		c5.77,0,10.449-4.679,10.449-10.449V10.449C512,4.678,507.321,0,501.551,0z M491.102,20.898v31.347h-94.041v20.898h94.041v41.796
		H20.898V73.143h73.143V52.245H20.898V20.898H491.102z M370.809,370.78C367.987,309.892,317.573,261.224,256,261.224
		S144.013,309.892,141.191,370.78c-2.588,0.1-5.228,0.159-7.966,0.159c-29.002,0-43.125-4.809-58.078-9.898
		c-14.078-4.793-28.589-9.726-54.249-10.788V135.837h470.204v214.415c-25.731,1.062-40.264,6.002-54.363,10.802
		c-14.933,5.082-29.038,9.885-57.964,9.885C376.037,370.939,373.397,370.879,370.809,370.78z M349.753,368.787
		c-11.612-1.855-20.205-4.758-29.167-7.795c-15.888-5.384-32.316-10.952-64.689-10.952c-32.323,0-48.726,5.569-64.588,10.956
		c-8.921,3.029-17.476,5.925-29.062,7.782c3.779-48.415,44.383-86.656,93.752-86.656
		C305.371,282.122,345.977,320.368,349.753,368.787z M20.898,491.102V371.169c22.112,1.011,34.501,5.226,47.515,9.655
		c15.903,5.415,32.35,11.013,64.812,11.013c6.92,0,13.358-0.288,19.579-0.874c20.266-1.703,32.954-6.011,45.225-10.178
		c14.913-5.064,28.997-9.846,57.869-9.846c28.928,0,43.04,4.783,57.979,9.846c12.285,4.163,24.987,8.468,45.266,10.174
		c6.307,0.59,12.73,0.878,19.632,0.878c32.386,0,48.812-5.592,64.698-11c13.036-4.438,25.445-8.659,47.629-9.669v119.934H20.898z"/>
	<rect x="235.102" y="73.143" style="fill:#231F20;" width="20.898" height="20.898"/>
	<rect x="276.898" y="73.143" style="fill:#231F20;" width="31.347" height="20.898"/>
	<rect x="182.857" y="73.143" style="fill:#231F20;" width="31.347" height="20.898"/>
	<rect x="245.551" y="198.531" style="fill:#231F20;" width="20.898" height="47.02"/>
	<rect x="381.388" y="313.469" style="fill:#231F20;" width="47.02" height="20.898"/>
	<rect x="83.592" y="313.469" style="fill:#231F20;" width="47.02" height="20.898"/>
	
		<rect x="339.592" y="239.06" transform="matrix(0.7071 0.7071 -0.7071 0.7071 287.2404 -171.0045)" style="fill:#231F20;" width="20.898" height="44.335"/>
	
		<rect x="134.564" y="250.772" transform="matrix(0.7071 0.7071 -0.7071 0.7071 230.6165 -34.3157)" style="fill:#231F20;" width="44.335" height="20.898"/>
	<path style="fill:#231F20;" d="M120.163,172.408c-8.023,0-15.347,3.032-20.898,8.007c-5.55-4.975-12.875-8.007-20.898-8.007
		c-17.285,0-31.347,14.062-31.347,31.347h20.898c0-5.762,4.687-10.449,10.449-10.449c5.762,0,10.449,4.687,10.449,10.449h20.898
		c0-5.762,4.687-10.449,10.449-10.449s10.449,4.687,10.449,10.449h20.898C151.51,186.47,137.448,172.408,120.163,172.408z"/>
	<path style="fill:#231F20;" d="M391.837,193.306h20.898c0-5.762,4.687-10.449,10.449-10.449s10.449,4.687,10.449,10.449h20.898
		c0-17.285-14.062-31.347-31.347-31.347c-8.023,0-15.349,3.032-20.898,8.007c-5.549-4.975-12.875-8.007-20.898-8.007
		c-17.285,0-31.347,14.062-31.347,31.347h20.898c0-5.762,4.687-10.449,10.449-10.449
		C387.149,182.857,391.837,187.545,391.837,193.306z"/>
</g>
<g>
</g>
<g>
</g>
<g>
</g>
<g>
</g>
<g>
</g>
<g>
</g>
<g>
</g>
<g>
</g>
<g>
</g>
<g>
</g>
<g>
</g>
<g>
</g>
<g>
</g>
<g>
</g>
<g>
</g>
</svg>
